<svg xmlns="http://www.w3.org/2000/svg" version="1.1" xmlns:xlink="http://www.w3.org/1999/xlink" xmlns:svgjs="http://svgjs.dev/svgjs" width="2000" height="2250" viewBox="0 0 2000 2250"><g transform="matrix(1,0,0,1,3.410605131648481e-13,0)"><svg viewBox="0 0 320 360" data-background-color="#ee3e38" preserveAspectRatio="xMidYMid meet" height="2250" width="2000" xmlns="http://www.w3.org/2000/svg" xmlns:xlink="http://www.w3.org/1999/xlink"><g id="tight-bounds" transform="matrix(1,0,0,1,0,0)"><svg viewBox="0 0 320 360" height="360" width="320"><g><svg></svg></g><g><svg viewBox="0 0 320 360" height="360" width="320"><g><path xmlns="http://www.w3.org/2000/svg" d="M20.961 227.22l3.726 4.658-1.863-6.056c-0.466-2.795-3.726 0.466-1.863 1.398M25.153 224.425c1.397 2.329 2.795 4.658 2.795 6.987 0 3.261 2.795 4.658 5.123 5.589-3.261-3.726-5.124-13.974-7.918-12.576M204.017 26.929c7.918 0 15.371-0.932 23.756 0.931 20.495 5.124 37.729 15.371 49.374 29.811l32.606 52.169c1.397 13.042 4.192 27.482 3.726 43.319 3.261 0 2.795-4.658 6.521-5.59-3.726 9.316-5.59 20.961-6.521 34.469-2.329-7.453 0-18.632 0.466-24.687-3.261 5.124-5.124 1.397-5.124-0.932 0.466-3.726-1.397-3.261-2.795-4.658-5.124-4.658-8.384-9.782-12.11-17.7 2.329-6.055 2.795-14.905-4.658-19.563-2.329-1.397-5.124-3.726-6.521-7.453-1.863-5.124-5.124-11.179-4.193-19.097 0.466-2.329-6.987 5.124-11.179 1.863-18.166-12.576-36.332-27.016-58.224-39.127-11.645 0-20.029-4.192-24.221-9.316-3.726-4.658-0.932-10.713 4.658-11.179 3.261 0 6.987-0.932 9.782 0.932 0.466-1.863 2.329-4.192 4.657-4.192M157.904 16.215l0.932 0.466c4.658 0.932 6.987 7.453 12.11 5.124 0 3.261 0.466 6.521-0.466 8.85-1.397 3.726-5.59 3.726-8.85 3.726-31.208-1.863-49.374 11.179-68.471 22.358-5.124 3.261-10.713 5.59-14.906 9.782-20.029 18.632-41.921 35.866-47.045 70.335l-4.192 38.195c-0.466 4.192-5.124 8.384-4.192 13.508l3.26 22.824c-3.261-3.261-5.124 0.932-4.192 2.795 0.466 1.397 2.329 6.055 5.124 1.863 3.726 6.987 7.453 20.495 12.576 26.55 15.837 18.632 36.332 35.4 53.101 52.169 4.192-0.932 7.453-0.932 8.384-3.727 1.397 2.795-1.397 5.59-3.726 6.056 7.453 4.658 15.837 8.85 27.016 9.781 14.44 0.932 27.948 3.261 40.524 6.522 6.521-1.863 13.042-2.795 20.029-3.261 2.329 0 3.726-3.726 6.521-4.658l0.466-4.658c2.795 4.192 2.329-1.397 0.466-4.192 3.261 2.795 4.192 5.124 5.589 6.987 0-1.397 3.726-6.521 3.727-0.466l0.931-6.055c1.397-0.932 1.863 5.124 3.261 0.931 1.397-4.192 4.192-0.932 6.987-2.329-0.932 1.863-0.466 5.59 2.794 3.261l3.727-3.261c2.329 5.59 6.055 3.261 7.918 2.329 20.495-13.042 40.99-28.413 60.553-43.784l-0.466 6.055 2.329-7.453c2.329 2.329 4.192 0.466 5.124-0.931 2.795-4.658 6.521-9.316 12.577-13.508-7.453 20.029-16.303 35.866-27.482 48.908l-4.658 5.59c0 3.261-0.932 7.453-4.658 7.918-1.863 0.466-5.59-0.932-8.384 1.863-1.397 1.863 3.261 5.59-0.466 2.795-3.261-2.329-6.521 0-10.248 0.932-2.795 0.932 1.863 3.726 2.795 5.589 0.932 1.863 1.863 3.726 1.398 6.056l-5.124-5.59c-6.055 3.261-9.782 9.316-14.906 13.974-2.329 1.863-1.397 5.124-1.397 7.918-3.261 0-6.987-0.932-8.85 0.932-1.397 1.863-0.932 4.658-0.932 7.453-4.658-0.466-5.124-7.453-9.315-6.056-4.192 0.932-8.85 1.397-12.577 3.727 2.795 5.59-4.658 2.329-3.726 3.26-6.987-4.192-13.042-7.453-20.495-4.658-15.837-5.124-35.4-2.795-49.84-0.931 0-2.329 0.466-4.658-0.466-5.124-0.932 2.329-3.726 1.397-3.26 1.397-8.85-6.055-17.7-9.782-27.016-14.905-8.384 0.932-16.303-3.261-18.632-5.59-6.521-6.055-13.974-2.795-20.029-4.192-13.042-3.261-17.7-16.769-19.098-26.084-0.932-4.658-4.658-6.521-6.055-6.056-6.055-19.563-15.371-37.263-22.824-55.429-1.863-4.658-1.397-9.316-1.397-14.44 2.329 0.932 4.658 0.466 4.192-2.794-2.329-15.371-7.918-27.016-13.974-38.195 3.261-15.837 3.726-34.469 11.179-48.443 6.521-12.576 18.632-19.098 27.016-29.811 2.795-3.726 2.795-8.85 5.59-12.11 9.316-9.316 18.632-19.098 28.879-27.482 4.658-3.726 10.247 0 17.234-1.397 2.329-8.384 11.645-15.837 20.495-13.508 3.726 0.932 11.179-8.85 13.508-9.782 3.726-1.397 1.863 3.726 1.863 6.987 8.85-6.987 20.961-10.713 32.14-14.906" fill="#ffffff" fill-rule="nonzero" stroke="none" stroke-width="1" stroke-linecap="butt" stroke-linejoin="miter" stroke-miterlimit="10" stroke-dasharray="" stroke-dashoffset="0" font-family="none" font-weight="none" font-size="none" text-anchor="none" style="mix-blend-mode: normal" data-fill-palette-color="tertiary"></path></g><g transform="matrix(1,0,0,1,64,129.29604359201204)"><svg viewBox="0 0 192 101.40791281597595" height="101.40791281597595" width="192"><g><svg viewBox="0 0 192 101.40791281597595" height="101.40791281597595" width="192"><g><svg viewBox="0 0 192 101.40791281597595" height="101.40791281597595" width="192"><g transform="matrix(1,0,0,1,0,61.29281726089758)"><svg viewBox="0 0 192 40.115095555078376" height="40.115095555078376" width="192"><g><svg viewBox="0 0 192 40.115095555078376" height="40.115095555078376" width="192"><g><svg viewBox="0 0 192 40.115095555078376" height="40.115095555078376" width="192"><g transform="matrix(1,0,0,1,0,0)"><svg width="192" viewBox="-0.45000001788139343 -29.600000381469727 232.8300018310547 48.650001525878906" height="40.115095555078376" data-palette-color="#ffffff"><path d="M10.6-4.05L10.6-4.05Q6.1 4.4 2.1 4.4L2.1 4.4Q-0.45 4.4-0.45 1.8L-0.45 1.8Q-0.45 0.25 0.75-1.65L0.75-1.65Q2.8-4.85 7.13-9.53 11.45-14.2 14.45-16.95L14.45-16.95 16.35-23.4Q13.85-21.05 9.85-20.65L9.85-20.65Q9.35-20.6 9.33-20.95 9.3-21.3 9.75-21.4L9.75-21.4 9.95-21.45Q12.1-21.65 14.38-23.7 16.65-25.75 17.8-28.4L17.8-28.4Q18-29.05 19.55-29.03 21.1-29 21.05-28.4L21.05-28.4 17.6-19.85Q24.4-25.6 27.35-25.75L27.35-25.75Q27.7-25.75 28.05-25.75L28.05-25.75Q32-25.75 33.5-23.15L33.5-23.15Q34.8-20.95 34.8-18L34.8-18Q34.8-13.6 32.1-5.4L32.1-5.4Q31.65-3.95 31.73-3.93 31.8-3.9 32-4.23 32.2-4.55 32.63-5.2 33.05-5.85 34.65-8.5L34.65-8.5Q40.4-18.15 46.35-24.6L46.35-24.6Q48.3-26.65 50.25-26.65L50.25-26.65Q51.4-26.65 52-25.85 52.6-25.05 52.6-24.1 52.6-23.15 52.18-21.45 51.75-19.75 49.6-14.35L49.6-14.35Q46.95-7.75 46.95-3.55L46.95-3.55Q46.95-0.3 48.75-0.3L48.75-0.3Q50.05-0.3 52.2-1.95L52.2-1.95Q55.5-4.7 57.5-7.4L57.5-7.4Q57.75-7.75 57.98-7.55 58.2-7.35 58.2-7.23 58.2-7.1 58.1-7L58.1-7Q57.15-5.5 55.1-3.4L55.1-3.4Q51.75 0.15 49.7 0.8L49.7 0.8Q48.7 1.15 47.75 1.15L47.75 1.15Q44.45 1.1 44.45-3.6L44.45-3.6Q44.45-6.05 45.05-8.35 45.65-10.65 46.03-11.9 46.4-13.15 47-14.83 47.6-16.5 48-17.4L48-17.4Q49.3-20.65 49.6-21.45 49.9-22.25 49.9-22.83 49.9-23.4 49.6-23.63 49.3-23.85 48.8-23.85 48.3-23.85 47.25-22.95L47.25-22.95Q43.4-19.65 38.58-12.55 33.75-5.45 31.8-1.4L31.8-1.4Q31.4-0.55 31-0.55 30.6-0.55 30.15-1.28 29.7-2 29.7-2.33 29.7-2.65 29.75-2.75L29.75-2.75Q31.05-6.05 31.63-9.8 32.2-13.55 32.2-15.95L32.2-15.95Q32.2-24.4 28.55-24.4L28.55-24.4Q25.15-24.4 16.2-16.2L16.2-16.2Q15.75-14.9 14.25-11.5L14.25-11.5Q12.2-7.05 10.6-4.05ZM2.25 2.7L2.25 2.7Q5.35 2.7 9.85-5.95L9.85-5.95Q12.35-10.75 13.45-13.75L13.45-13.75Q10.8-11.25 7.6-7.63 4.4-4 3.05-2.2L3.05-2.2Q1.3 0.15 1.3 1.43 1.3 2.7 2.25 2.7ZM68.35-14.55L68.35-14.55Q71.05-14.55 71.05-11.95L71.05-11.95Q71.05-10.6 70.3-9.75L70.3-9.75Q69.05-7.9 66.25-6.53 63.45-5.15 61.5-5L61.5-5Q60.8-4.95 60.75-5.4L60.75-5.4Q60.7-5.6 60.87-5.65 61.05-5.7 61.15-5.7L61.15-5.7Q62.3-5.8 64.1-6.8L64.1-6.8Q67.45-8.6 69-10.5L69-10.5Q69.65-11.4 69.65-12.23 69.65-13.05 68.85-13.05L68.85-13.05Q68.2-13.05 67.1-12.5L67.1-12.5Q64.75-11.4 62.15-8.68 59.55-5.95 58.75-3.35L58.75-3.35Q58.5-2.55 58.5-1.78 58.5-1 59.15-0.3 59.8 0.4 61.15 0.4L61.15 0.4Q62.65 0.4 64.6-0.4L64.6-0.4Q70.25-2.7 73.3-7.35L73.3-7.35Q73.6-7.75 73.85-7.5L73.85-7.5Q74.05-7.4 74.05-7.25 74.05-7.1 73.9-6.9L73.9-6.9Q72.4-4.4 70.1-2.45L70.1-2.45Q65.65 1.35 61.45 1.35L61.45 1.35Q57.85 1.35 56.4-0.8L56.4-0.8Q55.85-1.65 55.85-2.85 55.85-4.05 56.5-5.7L56.5-5.7Q57.75-8.55 61.85-11.55 65.95-14.55 68.35-14.55ZM79.34 1.25L79.34 1.25Q76.8 1.25 76.8-1.83 76.8-4.9 81.2-9.4L81.2-9.4Q81.55-9.75 81.7-9.95L81.7-9.95 82.05-10.45Q82.75-11.4 82.7-11.65L82.7-11.65 82.55-12.1Q82.34-12.7 80.9-12.98 79.45-13.25 78.55-13.25L78.55-13.25Q74.05-6.9 73.34-6 72.65-5.1 72.4-5.25 72.15-5.4 72.15-5.6 72.15-5.8 72.45-6.2L72.45-6.2Q75.15-9.5 77.09-13.25L77.09-13.25Q76.5-13.35 76.2-13.68 75.9-14 76.15-14.78 76.4-15.55 77.67-16.85 78.95-18.15 79.9-18.6 80.84-19.05 81.09-19.15 81.34-19.25 81.65-19.25L81.65-19.25Q82.25-19.25 81.25-17.45L81.25-17.45 79.3-14.35Q81.55-14.2 83.15-14.2L83.15-14.2 84.9-14.25Q85.75-14.25 86.15-14.03 86.55-13.8 86.34-13.25L86.34-13.25Q86-12.3 84.59-10.7L84.59-10.7Q81.59-7.2 80.09-3.25L80.09-3.25Q79.75-2.3 79.75-1.6L79.75-1.6Q79.75-0.15 80.8-0.15L80.8-0.15Q81.15-0.15 82.12-0.7 83.09-1.25 85.4-3.33 87.7-5.4 89.09-7.4L89.09-7.4Q89.3-7.65 89.57-7.53 89.84-7.4 89.84-7.28 89.84-7.15 89.75-7L89.75-7Q89-5.65 87.05-3.55 85.09-1.45 83.25-0.15L83.25-0.15Q81.45 1.25 79.34 1.25ZM102.39-14.2L102.39-14.2Q103.54-14.2 103.54-12.98 103.54-11.75 102.39-9.6 101.24-7.45 100.69-6.1L100.69-6.1Q99.74-3.8 99.74-2.43 99.74-1.05 100.14-0.6L100.14-0.6Q100.89 0.2 102.19-0.53 103.49-1.25 105.82-3.33 108.14-5.4 109.54-7.4L109.54-7.4Q109.74-7.65 110.02-7.53 110.29-7.4 110.29-7.28 110.29-7.15 110.19-7L110.19-7Q109.44-5.65 107.49-3.55 105.54-1.45 103.74-0.18 101.94 1.1 100.19 1.1L100.19 1.1Q98.49 1.05 97.79 0.33 97.09-0.4 97.09-1.5 97.09-2.6 97.29-3.63 97.49-4.65 98.04-6L98.04-6Q98.94-8.15 99.62-9.35 100.29-10.55 100.29-10.93 100.29-11.3 99.89-11.3L99.89-11.3Q99.09-11.3 96.84-9.35L96.84-9.35Q95.29-7.9 92.27-3.88 89.24 0.15 88.84 0.4L88.84 0.4Q87.04 1.3 86.59 1.3 86.14 1.3 86.14 1.15 86.14 1 86.24 0.73 86.34 0.45 87.22-2 88.09-4.45 89.12-7.38 90.14-10.3 90.37-10.9 90.59-11.5 90.67-11.93 90.74-12.35 90.84-12.65 90.94-12.95 91.22-13.33 91.49-13.7 91.94-13.73 92.39-13.75 93.09-13.63 93.79-13.5 93.79-13L93.79-13Q93.79-12.65 93.24-11.48 92.69-10.3 90.09-3.4L90.09-3.4Q91.89-5.6 94.64-8.47 97.39-11.35 99.29-12.85L99.29-12.85Q101.19-14.2 102.39-14.2ZM122.94-13.5L122.94-13.5Q123.84-13.5 125.09-12.58 126.34-11.65 126.49-10.75L126.49-10.75Q126.54-10.4 126.54-10.1L126.54-10.1Q126.54-7.85 124.34-5.28 122.14-2.7 119.39-0.9L119.39-0.9Q115.14 2 110.94 2L110.94 2Q109.24 2 108.24 1.55L108.24 1.55Q107.44 1.15 110.24 1.15L110.24 1.15Q113.29 1.15 118.14-2.45L118.14-2.45Q122.84-5.75 123.84-10.35L123.84-10.35Q123.99-11.05 123.82-11.78 123.64-12.5 122.94-12.5L122.94-12.5Q120.69-12.5 117.04-9.35L117.04-9.35Q115.49-8.05 113.87-5.85 112.24-3.65 112.24-2.25L112.24-2.25Q112.24-2.05 112.32-1.83 112.39-1.6 112.14-1.1L112.14-1.1Q111.49 0.2 110.29-1.25L110.29-1.25Q109.99-2 109.99-2.8L109.99-2.8Q109.99-5.1 110.69-7.65L110.69-7.65Q110.49-7.45 109.82-6.43 109.14-5.4 108.24-4.4L108.24-4.4Q107.79-3.9 107.54-4.4L107.54-4.4Q107.49-4.5 107.49-4.67 107.49-4.85 107.69-5.1L107.69-5.1Q111.59-9.95 112.24-11.4L112.24-11.4Q113.14-13.9 114.99-17.93 116.84-21.95 118.39-24.35L118.39-24.35Q121.59-29.4 124.99-29.4L124.99-29.4Q125.59-29.4 126.24-29.25L126.24-29.25 127.24-28.9Q128.69-28.05 128.69-26.73 128.69-25.4 127.89-23.85L127.89-23.85Q126.59-21.2 122.29-17.18 117.99-13.15 113.94-10.35L113.94-10.35Q112.94-8.55 112.39-5.65L112.39-5.65Q114.24-8.4 117.22-10.95 120.19-13.5 122.94-13.5ZM121.34-18L121.34-18Q127.29-24 127.29-26.9L127.29-26.9Q127.29-28.1 126.39-28.1L126.39-28.1Q125.69-28.1 124.49-27.2L124.49-27.2Q119.34-23.25 114.49-12.35L114.49-12.35Q117.89-14.6 121.34-18ZM145.79-25.5L145.79-25.5Q146.39-26.6 146.39-27.2L146.39-27.2Q146.39-28.25 145.54-28.25L145.54-28.25Q144.84-28.25 143.79-27.45L143.79-27.45Q139.79-24.35 136.04-17.65L136.04-17.65Q133.04-12.25 131.64-8.4L131.64-8.4Q135.09-10.75 139.36-16.05 143.64-21.35 145.79-25.5ZM130.89-6.4L130.89-6.4Q130.29-4.7 130.24-4.13 130.19-3.55 130.19-2.58 130.19-1.6 130.69-0.8L130.69-0.8Q131.54 0.55 133.54-0.6L133.54-0.6Q135.04-1.4 137.34-3.53 139.64-5.65 140.89-7.4L140.89-7.4Q140.99-7.55 141.19-7.55L141.19-7.55Q141.64-7.55 141.44-6.9L141.44-6.9Q140.69-5.55 138.66-3.45 136.64-1.35 134.99-0.13 133.34 1.1 131.69 1.1L131.69 1.1Q127.89 1.1 127.89-2.6L127.89-2.6Q127.89-2.75 127.89-2.9L127.89-2.9Q128.09-6.4 131.44-13.48 134.79-20.55 137.49-24.15L137.49-24.15 139.04-26.1Q139.59-26.75 140.64-27.7L140.64-27.7Q142.64-29.6 144.76-29.6 146.89-29.6 147.64-28.3L147.64-28.3Q147.89-27.85 147.89-27 147.89-26.15 147.14-24.6L147.14-24.6Q141.99-15.65 130.89-6.4ZM150.53-5.5L150.53-5.5Q151.44-7.35 151.44-8.35 151.44-9.35 151.21-9.93 150.99-10.5 151.41-10.9 151.84-11.3 152.49-11.2L152.49-11.2Q153.49-10.95 153.49-8.95 153.49-6.95 151.13-3.7L151.13-3.7Q151.19-2.35 152.53-2.35 153.88-2.35 156.63-5.25L156.63-5.25Q157.94-6.75 158.26-7.2 158.59-7.65 158.84-7.53 159.09-7.4 159.09-7.3L159.09-7.3Q159.09-6.8 157.28-4.7L157.28-4.7Q154.44-1.2 152.24-1.2L152.24-1.2Q150.78-1.2 150.19-2.45L150.19-2.45Q149.19-1.4 148.24-0.5L148.24-0.5Q146.28 1.15 143.88 1.15L143.88 1.15Q142.53 1.15 141.63 0.5L141.63 0.5Q139.88-0.55 139.88-3.25L139.88-3.25Q139.88-6.2 141.88-9.25L141.88-9.25Q143.03-11.05 144.59-12.4L144.59-12.4Q147.03-14.55 149.24-14.55L149.24-14.55Q149.78-14.55 150.28-14.4L150.28-14.4Q151.78-13.9 151.78-12.5L151.78-12.5Q151.78-11.35 151.19-11.35L151.19-11.35Q150.94-11.45 150.94-12.1L150.94-12.1Q150.94-13 149.94-13L149.94-13Q148.19-13 145.44-9.8 142.69-6.6 142.13-3.35L142.13-3.35Q142.03-2.8 142.03-2.13 142.03-1.45 142.49-0.58 142.94 0.3 144.16 0.3 145.38 0.3 146.84-0.8 148.28-1.9 149.44-3.6L149.44-3.6 149.28-3.9Q149.09-4.7 149.49-5.2 149.88-5.7 150.53-5.5ZM156.38 19.05L156.38 19.05Q155.98 19.05 155.38 18.9L155.38 18.9Q152.83 18.25 152.83 16.23 152.83 14.2 155.46 11.15 158.08 8.1 166.53 2.5L166.53 2.5Q170.13-4.85 171.53-9.15L171.53-9.15Q168.73-5.75 167.53-4.45L167.53-4.45Q163.03 0.55 160.28 0.55L160.28 0.55Q159.48 0.55 158.56 0.08 157.63-0.4 156.98-1.28 156.33-2.15 156.33-3.15L156.33-3.15Q156.33-5.8 160.03-9.1L160.03-9.1Q162.23-11.1 164.63-12.5 167.03-13.9 168.43-14.25 169.83-14.6 171.13-14.6 172.43-14.6 173.43-13.9 174.43-13.2 174.43-12.5L174.43-12.5Q174.43-12.1 174.03-12.25L174.03-12.25Q173.48-13.2 171.61-13.2 169.73-13.2 167.36-11.98 164.98-10.75 163.08-9.08 161.18-7.4 159.86-5.28 158.53-3.15 158.53-2.15L158.53-2.15Q158.53-0.4 159.53-0.4L159.53-0.4Q160.93-0.4 163.83-2.7L163.83-2.7Q168.13-6.05 172.08-10.85L172.08-10.85Q172.73-11.8 174.78-10.8L174.78-10.8Q175.58-10.4 175.43-10.1L175.43-10.1Q174.78-8.65 173.06-5.08 171.33-1.5 170.48 0.3L170.48 0.3Q171.63-0.3 174.41-2.73 177.18-5.15 179.28-7.6L179.28-7.6Q180.38-8.9 180.38-8L180.38-8Q180.38-6.75 174.38-1.4L174.38-1.4Q170.93 1.7 169.48 2.5L169.48 2.5Q165.23 11.25 163.78 13.5L163.78 13.5Q160.03 19.05 156.38 19.05ZM165.58 4.4L165.58 4.4Q159.58 8.9 156.98 11.53 154.38 14.15 154.38 16.45L154.38 16.45Q154.38 17.15 154.83 17.45 155.28 17.75 155.78 17.75 156.28 17.75 157.23 17 158.18 16.25 158.86 15.53 159.53 14.8 160.03 14.18 160.53 13.55 161.16 12.58 161.78 11.6 162.13 11.05 162.48 10.5 163.11 9.33 163.73 8.15 163.96 7.73 164.18 7.3 164.81 6 165.43 4.7 165.58 4.4ZM177.18 19.05L177.18 19.05Q176.78 19.05 176.18 18.9L176.18 18.9Q173.63 18.25 173.63 16.23 173.63 14.2 176.26 11.15 178.88 8.1 187.33 2.5L187.33 2.5Q190.93-4.85 192.33-9.15L192.33-9.15Q189.53-5.75 188.33-4.45L188.33-4.45Q183.83 0.55 181.08 0.55L181.08 0.55Q180.28 0.55 179.36 0.08 178.43-0.4 177.78-1.28 177.13-2.15 177.13-3.15L177.13-3.15Q177.13-5.8 180.83-9.1L180.83-9.1Q183.03-11.1 185.43-12.5 187.83-13.9 189.23-14.25 190.63-14.6 191.93-14.6 193.23-14.6 194.23-13.9 195.23-13.2 195.23-12.5L195.23-12.5Q195.23-12.1 194.83-12.25L194.83-12.25Q194.28-13.2 192.41-13.2 190.53-13.2 188.16-11.98 185.78-10.75 183.88-9.08 181.98-7.4 180.66-5.28 179.33-3.15 179.33-2.15L179.33-2.15Q179.33-0.4 180.33-0.4L180.33-0.4Q181.73-0.4 184.63-2.7L184.63-2.7Q188.93-6.05 192.88-10.85L192.88-10.85Q193.53-11.8 195.58-10.8L195.58-10.8Q196.38-10.4 196.23-10.1L196.23-10.1Q195.58-8.65 193.86-5.08 192.13-1.5 191.28 0.3L191.28 0.3Q192.43-0.3 195.21-2.73 197.98-5.15 200.08-7.6L200.08-7.6Q201.18-8.9 201.18-8L201.18-8Q201.18-6.75 195.18-1.4L195.18-1.4Q191.73 1.7 190.28 2.5L190.28 2.5Q186.03 11.25 184.58 13.5L184.58 13.5Q180.83 19.05 177.18 19.05ZM186.38 4.4L186.38 4.4Q180.38 8.9 177.78 11.53 175.18 14.15 175.18 16.45L175.18 16.45Q175.18 17.15 175.63 17.45 176.08 17.75 176.58 17.75 177.08 17.75 178.03 17 178.98 16.25 179.66 15.53 180.33 14.8 180.83 14.18 181.33 13.55 181.96 12.58 182.58 11.6 182.93 11.05 183.28 10.5 183.91 9.33 184.53 8.15 184.76 7.73 184.98 7.3 185.61 6 186.23 4.7 186.38 4.4ZM210.88-14.55L210.88-14.55Q213.58-14.55 213.58-11.95L213.58-11.95Q213.58-10.6 212.83-9.75L212.83-9.75Q211.58-7.9 208.78-6.53 205.98-5.15 204.03-5L204.03-5Q203.33-4.95 203.28-5.4L203.28-5.4Q203.23-5.6 203.4-5.65 203.58-5.7 203.68-5.7L203.68-5.7Q204.83-5.8 206.63-6.8L206.63-6.8Q209.98-8.6 211.53-10.5L211.53-10.5Q212.18-11.4 212.18-12.23 212.18-13.05 211.38-13.05L211.38-13.05Q210.73-13.05 209.63-12.5L209.63-12.5Q207.28-11.4 204.68-8.68 202.08-5.95 201.28-3.35L201.28-3.35Q201.03-2.55 201.03-1.78 201.03-1 201.68-0.3 202.33 0.4 203.68 0.4L203.68 0.4Q205.18 0.4 207.13-0.4L207.13-0.4Q212.78-2.7 215.83-7.35L215.83-7.35Q216.13-7.75 216.38-7.5L216.38-7.5Q216.58-7.4 216.58-7.25 216.58-7.1 216.43-6.9L216.43-6.9Q214.93-4.4 212.63-2.45L212.63-2.45Q208.18 1.35 203.98 1.35L203.98 1.35Q200.38 1.35 198.93-0.8L198.93-0.8Q198.38-1.65 198.38-2.85 198.38-4.05 199.03-5.7L199.03-5.7Q200.28-8.55 204.38-11.55 208.48-14.55 210.88-14.55ZM221.88 1.25L221.88 1.25Q219.33 1.25 219.33-1.83 219.33-4.9 223.73-9.4L223.73-9.4Q224.08-9.75 224.23-9.95L224.23-9.95 224.58-10.45Q225.28-11.4 225.23-11.65L225.23-11.65 225.08-12.1Q224.88-12.7 223.43-12.98 221.98-13.25 221.08-13.25L221.08-13.25Q216.58-6.9 215.88-6 215.18-5.1 214.93-5.25 214.68-5.4 214.68-5.6 214.68-5.8 214.98-6.2L214.98-6.2Q217.68-9.5 219.63-13.25L219.63-13.25Q219.03-13.35 218.73-13.68 218.43-14 218.68-14.78 218.93-15.55 220.2-16.85 221.48-18.15 222.43-18.6 223.38-19.05 223.63-19.15 223.88-19.25 224.18-19.25L224.18-19.25Q224.78-19.25 223.78-17.45L223.78-17.45 221.83-14.35Q224.08-14.2 225.68-14.2L225.68-14.2 227.43-14.25Q228.28-14.25 228.68-14.03 229.08-13.8 228.88-13.25L228.88-13.25Q228.53-12.3 227.13-10.7L227.13-10.7Q224.13-7.2 222.63-3.25L222.63-3.25Q222.28-2.3 222.28-1.6L222.28-1.6Q222.28-0.15 223.33-0.15L223.33-0.15Q223.68-0.15 224.65-0.7 225.63-1.25 227.93-3.33 230.23-5.4 231.63-7.4L231.63-7.4Q231.83-7.65 232.1-7.53 232.38-7.4 232.38-7.28 232.38-7.15 232.28-7L232.28-7Q231.53-5.65 229.58-3.55 227.63-1.45 225.78-0.15L225.78-0.15Q223.98 1.25 221.88 1.25Z" opacity="1" transform="matrix(1,0,0,1,0,0)" fill="#ffffff" class="undefined-text-0" data-fill-palette-color="primary" id="text-0"></path></svg></g></svg></g></svg></g></svg></g><g transform="matrix(1,0,0,1,68.29421192187641,0)"><svg viewBox="0 0 55.411576156247165 55.43906205711832" height="55.43906205711832" width="55.411576156247165"><g><svg xmlns:dc="http://purl.org/dc/elements/1.1/" xmlns:cc="http://creativecommons.org/ns#" xmlns:rdf="http://www.w3.org/1999/02/22-rdf-syntax-ns#" xmlns:svg="http://www.w3.org/2000/svg" xmlns="http://www.w3.org/2000/svg" xmlns:sodipodi="http://sodipodi.sourceforge.net/DTD/sodipodi-0.dtd" xmlns:inkscape="http://www.inkscape.org/namespaces/inkscape" preserveAspectRatio="xMidYMid" viewBox="0 0 63 63.03125" version="1.1" x="0" y="0" height="55.43906205711832" width="55.411576156247165" class="icon-icon-0" data-fill-palette-color="accent" id="icon-0"><path d="M9.5 0C4.253 0 0 4.25 0 9.5L0 53.531C0 58.781 4.253 63.031 9.5 63.031L53.5 63.031C58.747 63.031 63 58.781 63 53.531L63 9.5C63 4.25 58.747 0 53.5 0L9.5 0zM10 3L17 3 17 60.031 10 60.031 10 3zM20 3L35 3 35 60.031 20 60.031 20 3zM38 3L53.5 3C57.09 3 60 5.908 60 9.5L60 53.531C60 57.123 57.09 60.031 53.5 60.031L38 60.031 38 3zM6.969 3.5C6.978 3.496 6.991 3.504 7 3.5L7 59.531C4.653 58.55 3 56.236 3 53.531L3 9.5C3 6.806 4.636 4.487 6.969 3.5z" fill="#ffffff" fill-rule="evenodd" data-fill-palette-color="accent"></path></svg></g></svg></g><g></g></svg></g></svg></g></svg></g></svg></g><defs></defs></svg><rect width="320" height="360" fill="none" stroke="none" visibility="hidden"></rect></g></svg></g></svg>